<svg width="21" height="21" viewBox="0 0 21 21" fill="none" xmlns="http://www.w3.org/2000/svg">
<path d="M0 10C0 4.47715 4.47715 0 10 0H11C16.5228 0 21 4.47715 21 10V11C21 16.5228 16.5228 21 11 21H10C4.47715 21 0 16.5228 0 11V10Z" fill="#FC4945"/>
<path d="M13.8237 15H7.76807V14.1558L10.9673 10.6011C11.4412 10.0636 11.7671 9.62777 11.9448 9.29346C12.1268 8.95492 12.2178 8.60579 12.2178 8.24609C12.2178 7.76367 12.0718 7.368 11.7798 7.05908C11.4878 6.75016 11.0985 6.5957 10.6118 6.5957C10.0278 6.5957 9.57292 6.76286 9.24707 7.09717C8.92546 7.42725 8.76465 7.88851 8.76465 8.48096H7.59033C7.59033 7.63037 7.86328 6.94271 8.40918 6.41797C8.95931 5.89323 9.69352 5.63086 10.6118 5.63086C11.4709 5.63086 12.1501 5.85726 12.6494 6.31006C13.1488 6.75863 13.3984 7.35742 13.3984 8.10645C13.3984 9.01628 12.8187 10.0996 11.6592 11.3564L9.18359 14.0415H13.8237V15Z" fill="white"/>
</svg>
