<svg width="42" height="24" viewBox="0 0 42 24" fill="none" xmlns="http://www.w3.org/2000/svg">
<path d="M0 11.6094C0 5.2581 5.14873 0.109375 11.5 0.109375H30.5C36.8513 0.109375 42 5.2581 42 11.6094V11.6094C42 17.9606 36.8513 23.1094 30.5 23.1094H11.5C5.14873 23.1094 0 17.9606 0 11.6094V11.6094Z" fill="#F64775"/>
<path d="M10.0693 9.70752V15.1094H8.89502V8.24121H10.0059L10.0693 9.70752ZM9.79004 11.415L9.30127 11.396C9.3055 10.9263 9.37533 10.4925 9.51074 10.0947C9.64616 9.69271 9.83659 9.34359 10.082 9.04736C10.3275 8.75114 10.6195 8.52262 10.958 8.36182C11.3008 8.19678 11.6795 8.11426 12.0942 8.11426C12.4328 8.11426 12.7375 8.16081 13.0083 8.25391C13.2791 8.34277 13.5098 8.48665 13.7002 8.68555C13.8949 8.88444 14.043 9.14258 14.1445 9.45996C14.2461 9.77311 14.2969 10.1561 14.2969 10.6089V15.1094H13.1162V10.5962C13.1162 10.2365 13.0633 9.94873 12.9575 9.73291C12.8517 9.51286 12.6973 9.35417 12.4941 9.25684C12.291 9.15527 12.0413 9.10449 11.7451 9.10449C11.4531 9.10449 11.1865 9.16585 10.9453 9.28857C10.7083 9.4113 10.5031 9.58057 10.3296 9.79639C10.1603 10.0122 10.027 10.2598 9.92969 10.5391C9.83659 10.8141 9.79004 11.1061 9.79004 11.415ZM18.9307 15.2363C18.4525 15.2363 18.0187 15.1559 17.6294 14.9951C17.2443 14.8301 16.9121 14.5994 16.6328 14.3032C16.3577 14.007 16.1462 13.6558 15.998 13.2495C15.8499 12.8433 15.7759 12.3989 15.7759 11.9165V11.6499C15.7759 11.0913 15.8584 10.5941 16.0234 10.1582C16.1885 9.7181 16.4128 9.3457 16.6963 9.04102C16.9798 8.73633 17.3014 8.5057 17.6611 8.34912C18.0208 8.19255 18.3932 8.11426 18.7783 8.11426C19.2692 8.11426 19.6924 8.19889 20.0479 8.36816C20.4076 8.53743 20.7017 8.77441 20.9302 9.0791C21.1587 9.37956 21.328 9.73503 21.438 10.1455C21.548 10.5518 21.603 10.9961 21.603 11.4785V12.0054H16.4741V11.0469H20.4287V10.958C20.4118 10.6533 20.3483 10.3571 20.2383 10.0693C20.1325 9.78158 19.9632 9.5446 19.7305 9.3584C19.4977 9.1722 19.1803 9.0791 18.7783 9.0791C18.5117 9.0791 18.2663 9.13623 18.042 9.25049C17.8177 9.36051 17.6252 9.52555 17.4644 9.74561C17.3035 9.96566 17.1787 10.2344 17.0898 10.5518C17.001 10.8691 16.9565 11.2352 16.9565 11.6499V11.9165C16.9565 12.2424 17.001 12.5492 17.0898 12.8369C17.1829 13.1204 17.3162 13.3701 17.4897 13.5859C17.6675 13.8018 17.8812 13.971 18.1309 14.0938C18.3848 14.2165 18.6725 14.2778 18.9941 14.2778C19.4089 14.2778 19.7601 14.1932 20.0479 14.0239C20.3356 13.8547 20.5874 13.6283 20.8032 13.3447L21.5142 13.9097C21.366 14.134 21.1777 14.3477 20.9492 14.5508C20.7207 14.7539 20.4393 14.9189 20.105 15.0459C19.7749 15.1729 19.3835 15.2363 18.9307 15.2363ZM24.7134 13.8906L26.478 8.24121H27.2524L27.1001 9.36475L25.3037 15.1094H24.5483L24.7134 13.8906ZM23.5264 8.24121L25.0308 13.9541L25.1387 15.1094H24.3452L22.3521 8.24121H23.5264ZM28.9409 13.9097L30.3755 8.24121H31.5435L29.5503 15.1094H28.7632L28.9409 13.9097ZM27.4238 8.24121L29.1504 13.7954L29.3472 15.1094H28.5981L26.751 9.35205L26.5986 8.24121H27.4238Z" fill="white"/>
</svg>
