<svg width="334" height="51" viewBox="0 0 334 51" fill="none" xmlns="http://www.w3.org/2000/svg">
<path d="M0 30.1094C0 19.0637 8.95431 10.1094 20 10.1094C31.0457 10.1094 40 19.0637 40 30.1094C40 41.1551 31.0457 50.1094 20 50.1094C8.95431 50.1094 0 41.1551 0 30.1094Z" fill="#CD486B"/>
<mask id="mask0_0_296" style="mask-type:alpha" maskUnits="userSpaceOnUse" x="8" y="19" width="24" height="23">
<path d="M8.95 19.0942H31.015V41.1564H8.95V19.0942Z" fill="white"/>
</mask>
<g mask="url(#mask0_0_296)">
<path fill-rule="evenodd" clip-rule="evenodd" d="M19.9825 19.0942C16.9863 19.0942 16.6106 19.1069 15.4339 19.1606C14.2595 19.2143 13.4575 19.4007 12.7558 19.6734C12.0303 19.9554 11.415 20.3326 10.8017 20.9459C10.1884 21.5593 9.81112 22.1746 9.52924 22.9001C9.2564 23.6019 9.06993 24.4038 9.01639 25.5781C8.96267 26.7549 8.95 27.1305 8.95 30.1268C8.95 33.1231 8.96267 33.4988 9.01639 34.6755C9.06993 35.8498 9.2564 36.6518 9.52924 37.3536C9.81112 38.0791 10.1884 38.6944 10.8017 39.3077C11.415 39.921 12.0303 40.2983 12.7558 40.5802C13.4575 40.8529 14.2595 41.0394 15.4339 41.093C16.6106 41.1467 16.9863 41.1594 19.9825 41.1594C22.9788 41.1594 23.3546 41.1467 24.5313 41.093C25.7056 41.0394 26.5075 40.8529 27.2093 40.5802C27.9348 40.2983 28.55 39.921 29.1634 39.3077C29.7767 38.6944 30.154 38.0791 30.4359 37.3536C30.7087 36.6518 30.8951 35.8498 30.9487 34.6755C31.0025 33.4988 31.0151 33.1231 31.0151 30.1268C31.0151 27.1305 31.0025 26.7549 30.9487 25.5781C30.8951 24.4038 30.7087 23.6019 30.4359 22.9001C30.154 22.1746 29.7767 21.5593 29.1634 20.9459C28.55 20.3326 27.9348 19.9554 27.2093 19.6734C26.5075 19.4007 25.7056 19.2143 24.5313 19.1606C23.3546 19.1069 22.9788 19.0942 19.9825 19.0942ZM19.9825 21.0821C22.9284 21.0821 23.2772 21.0933 24.4406 21.1463C25.5163 21.1954 26.1005 21.3752 26.4892 21.5263C27.0042 21.7264 27.3718 21.9655 27.7578 22.3515C28.1439 22.7376 28.383 23.1051 28.5831 23.6201C28.7341 24.0089 28.9139 24.5931 28.963 25.6687C29.016 26.8321 29.0273 27.181 29.0273 30.1268C29.0273 33.0727 29.016 33.4216 28.963 34.5849C28.9139 35.6606 28.7341 36.2448 28.5831 36.6336C28.383 37.1485 28.1439 37.516 27.7578 37.9021C27.3718 38.2882 27.0042 38.5272 26.4892 38.7274C26.1005 38.8784 25.5163 39.0582 24.4406 39.1072C23.2774 39.1604 22.9286 39.1715 19.9825 39.1715C17.0365 39.1715 16.6877 39.1604 15.5244 39.1072C14.4488 39.0582 13.8646 38.8784 13.4759 38.7274C12.9609 38.5272 12.5934 38.2882 12.2073 37.9021C11.8213 37.516 11.5822 37.1485 11.3821 36.6336C11.231 36.2448 11.0512 35.6606 11.0021 34.5849C10.9491 33.4216 10.9378 33.0727 10.9378 30.1268C10.9378 27.181 10.9491 26.8321 11.0021 25.6687C11.0512 24.5931 11.231 24.0089 11.3821 23.6201C11.5822 23.1051 11.8213 22.7376 12.2073 22.3515C12.5934 21.9655 12.9609 21.7264 13.4759 21.5263C13.8646 21.3752 14.4488 21.1954 15.5244 21.1463C16.6878 21.0933 17.0367 21.0821 19.9825 21.0821Z" fill="white"/>
</g>
<path fill-rule="evenodd" clip-rule="evenodd" d="M19.9825 33.8043C17.9515 33.8043 16.305 32.1578 16.305 30.1268C16.305 28.0957 17.9515 26.4493 19.9825 26.4493C22.0136 26.4493 23.6601 28.0957 23.6601 30.1268C23.6601 32.1578 22.0136 33.8043 19.9825 33.8043ZM19.9825 24.4614C16.8537 24.4614 14.3172 26.9979 14.3172 30.1268C14.3172 33.2557 16.8537 35.7921 19.9825 35.7921C23.1114 35.7921 25.6479 33.2557 25.6479 30.1268C25.6479 26.9979 23.1114 24.4614 19.9825 24.4614Z" fill="white"/>
<path fill-rule="evenodd" clip-rule="evenodd" d="M27.1957 24.2375C27.1957 24.9686 26.603 25.5614 25.8718 25.5614C25.1406 25.5614 24.5479 24.9686 24.5479 24.2375C24.5479 23.5063 25.1406 22.9136 25.8718 22.9136C26.603 22.9136 27.1957 23.5063 27.1957 24.2375Z" fill="white"/>
<path d="M48 30.1094C48 19.0637 56.9543 10.1094 68 10.1094C79.0457 10.1094 88 19.0637 88 30.1094C88 41.1551 79.0457 50.1094 68 50.1094C56.9543 50.1094 48 41.1551 48 30.1094Z" fill="#007BB6"/>
<path fill-rule="evenodd" clip-rule="evenodd" d="M62.067 26.7092H57.8V39.1341H62.067V26.7092Z" fill="white"/>
<path fill-rule="evenodd" clip-rule="evenodd" d="M62.1755 21.4787C62.1478 20.1053 61.2489 19.0593 59.7891 19.0593C58.3293 19.0593 57.375 20.1053 57.375 21.4787C57.375 22.8236 58.3011 23.8997 59.7337 23.8997H59.761C61.2489 23.8997 62.1755 22.8236 62.1755 21.4787Z" fill="white"/>
<path fill-rule="evenodd" clip-rule="evenodd" d="M78.2035 32.0472C78.2035 28.2308 76.0979 26.4546 73.2891 26.4546C71.0229 26.4546 70.0083 27.6606 69.4418 28.5066V26.7467H65.173C65.2293 27.9126 65.173 39.1715 65.173 39.1715H69.4418V32.2325C69.4418 31.8611 69.4695 31.4907 69.5824 31.2248C69.8909 30.483 70.5933 29.7149 71.7725 29.7149C73.3176 29.7149 73.9352 30.8542 73.9352 32.5239V39.1712H78.2034L78.2035 32.0472Z" fill="white"/>
<path d="M96 30.1094C96 19.0637 104.954 10.1094 116 10.1094C127.046 10.1094 136 19.0637 136 30.1094C136 41.1551 127.046 50.1094 116 50.1094C104.954 50.1094 96 41.1551 96 30.1094Z" fill="#4099FF"/>
<path d="M112.811 38.4892C120.127 38.4892 124.127 32.3477 124.127 27.0221C124.127 26.8476 124.124 26.674 124.116 26.5011C124.893 25.9322 125.568 25.2223 126.1 24.4141C125.387 24.7351 124.62 24.9512 123.816 25.0486C124.637 24.5497 125.267 23.7604 125.565 22.8195C124.796 23.2811 123.945 23.6166 123.039 23.7978C122.314 23.0144 121.28 22.5244 120.136 22.5244C117.94 22.5244 116.159 24.3293 116.159 26.5541C116.159 26.8704 116.194 27.178 116.262 27.4731C112.957 27.3046 110.026 25.7008 108.064 23.2622C107.723 23.8578 107.526 24.5497 107.526 25.2879C107.526 26.6862 108.228 27.9206 109.295 28.6427C108.643 28.6223 108.03 28.4408 107.494 28.1386C107.494 28.1555 107.494 28.172 107.494 28.1901C107.494 30.1419 108.865 31.7716 110.684 32.1408C110.35 32.2332 109.999 32.2827 109.636 32.2827C109.38 32.2827 109.13 32.2572 108.888 32.21C109.394 33.8114 110.863 34.9767 112.603 35.0092C111.242 36.0904 109.527 36.7344 107.664 36.7344C107.343 36.7344 107.026 36.7159 106.715 36.6786C108.475 37.8219 110.565 38.489 112.812 38.489" fill="white"/>
</svg>
